TITLE ""
FILE "Disc1Track57.mp3" MP3
  TRACK 01 AUDIO
    TITLE "Disc1Track57_01"
    INDEX 01 00:00:00
  TRACK 02 AUDIO
    TITLE "Disc1Track57_02"
    INDEX 01 00:01:10
  TRACK 03 AUDIO
    TITLE "Disc1Track57_03"
    INDEX 01 00:03:15
  TRACK 04 AUDIO
    TITLE "Disc1Track57_04"
    INDEX 01 00:04:36
  TRACK 05 AUDIO
    TITLE "Disc1Track57_05"
    INDEX 01 00:10:20
  TRACK 06 AUDIO
    TITLE "Disc1Track57_06"
    INDEX 01 00:10:50
  TRACK 07 AUDIO
    TITLE "Disc1Track57_07"
    INDEX 01 00:12:17
  TRACK 08 AUDIO
    TITLE "Disc1Track57_08"
    INDEX 01 00:13:38
  TRACK 09 AUDIO
    TITLE "Disc1Track57_09"
    INDEX 01 00:15:06
  TRACK 10 AUDIO
    TITLE "Disc1Track57_10"
    INDEX 01 00:15:43
  TRACK 11 AUDIO
    TITLE "Disc1Track57_11"
    INDEX 01 00:16:68
  TRACK 12 AUDIO
    TITLE "Disc1Track57_12"
    INDEX 01 00:19:35
  TRACK 13 AUDIO
    TITLE "Disc1Track57_13"
    INDEX 01 00:20:64
  TRACK 14 AUDIO
    TITLE "Disc1Track57_14"
    INDEX 01 00:25:00
  TRACK 15 AUDIO
    TITLE "Disc1Track57_15"
    INDEX 01 00:25:34
  TRACK 16 AUDIO
    TITLE "Disc1Track57_16"
    INDEX 01 00:26:66
  TRACK 17 AUDIO
    TITLE "Disc1Track57_17"
    INDEX 01 00:30:07
  TRACK 18 AUDIO
    TITLE "Disc1Track57_18"
    INDEX 01 00:31:38
  TRACK 19 AUDIO
    TITLE "Disc1Track57_19"
    INDEX 01 00:35:69
  TRACK 20 AUDIO
    TITLE "Disc1Track57_20"
    INDEX 01 00:36:26
  TRACK 21 AUDIO
    TITLE "Disc1Track57_21"
    INDEX 01 00:37:45
  TRACK 22 AUDIO
    TITLE "Disc1Track57_22"
    INDEX 01 00:40:53
  TRACK 23 AUDIO
    TITLE "Disc1Track57_23"
    INDEX 01 00:41:72
  TRACK 24 AUDIO
    TITLE "Disc1Track57_24"
    INDEX 01 00:42:32
  TRACK 25 AUDIO
    TITLE "Disc1Track57_25"
    INDEX 01 00:43:69
  TRACK 26 AUDIO
    TITLE "Disc1Track57_26"
    INDEX 01 00:45:01
  TRACK 27 AUDIO
    TITLE "Disc1Track57_27"
    INDEX 01 00:46:38
  TRACK 28 AUDIO
    TITLE "Disc1Track57_28"
    INDEX 01 00:51:21
  TRACK 29 AUDIO
    TITLE "Disc1Track57_29"
    INDEX 01 00:51:53
  TRACK 30 AUDIO
    TITLE "Disc1Track57_30"
    INDEX 01 00:53:14
  TRACK 31 AUDIO
    TITLE "Disc1Track57_31"
    INDEX 01 00:56:50
  TRACK 32 AUDIO
    TITLE "Disc1Track57_32"
    INDEX 01 00:58:12
  TRACK 33 AUDIO
    TITLE "Disc1Track57_33"
    INDEX 01 01:02:68
  TRACK 34 AUDIO
    TITLE "Disc1Track57_34"
    INDEX 01 01:03:23
  TRACK 35 AUDIO
    TITLE "Disc1Track57_35"
    INDEX 01 01:05:00
  TRACK 36 AUDIO
    TITLE "Disc1Track57_36"
    INDEX 01 01:06:64
  TRACK 37 AUDIO
    TITLE "Disc1Track57_37"
    INDEX 01 01:08:43
  TRACK 38 AUDIO
    TITLE "Disc1Track57_38"
    INDEX 01 01:09:06
  TRACK 39 AUDIO
    TITLE "Disc1Track57_39"
    INDEX 01 01:10:38
  TRACK 40 AUDIO
    TITLE "Disc1Track57_40"
    INDEX 01 01:11:69
  TRACK 41 AUDIO
    TITLE "Disc1Track57_41"
    INDEX 01 01:13:27
  TRACK 42 AUDIO
    TITLE "Disc1Track57_42"
    INDEX 01 01:17:23
